<svg xmlns="http://www.w3.org/2000/svg" width="83" height="32"><path fill="#fff" d="M2.856 5.628a.672.672 0 0 0-.044-.25c-.027-.073-.076-.14-.147-.2s-.171-.119-.3-.175a3.973 3.973 0 0 0-.488-.178 5.472 5.472 0 0 1-.6-.222 2.278 2.278 0 0 1-.475-.287 1.228 1.228 0 0 1-.316-.378 1.058 1.058 0 0 1-.112-.497c0-.185.039-.354.116-.506.079-.152.191-.283.334-.394.146-.112.318-.199.516-.259.198-.063.417-.094.656-.094.337 0 .628.063.872.188.246.125.434.293.566.503.133.21.2.443.2.697h-.778a.792.792 0 0 0-.097-.397.656.656 0 0 0-.288-.275 1.034 1.034 0 0 0-.484-.1c-.185 0-.34.028-.462.084s-.215.132-.275.228a.6.6 0 0 0-.091.325c0 .085.02.164.059.234.04.069.1.133.181.194.081.058.183.114.306.166s.268.102.434.15c.252.075.472.158.659.25.188.09.344.192.469.306s.219.245.281.391c.063.144.094.307.094.491 0 .192-.039.365-.116.519a1.134 1.134 0 0 1-.331.391 1.594 1.594 0 0 1-.512.247 2.434 2.434 0 0 1-.663.084c-.219 0-.434-.029-.647-.087a1.9 1.9 0 0 1-.575-.266 1.373 1.373 0 0 1-.412-.45 1.272 1.272 0 0 1-.153-.634h.784c0 .148.025.274.075.378a.69.69 0 0 0 .216.256.959.959 0 0 0 .319.144c.123.031.254.047.394.047.183 0 .336-.026.459-.078.125-.052.219-.125.281-.219s.094-.202.094-.325zm1.391-.481v-.072c0-.244.035-.47.106-.678.071-.21.173-.393.306-.547.135-.156.3-.277.494-.362.196-.087.417-.131.662-.131.248 0 .469.044.663.131.196.085.361.206.497.362.135.154.239.336.309.547.071.208.106.434.106.678v.072c0 .244-.035.47-.106.678s-.174.391-.309.547c-.135.154-.3.275-.494.362a1.628 1.628 0 0 1-.659.128c-.248 0-.47-.043-.666-.128a1.432 1.432 0 0 1-.494-.362c-.135-.156-.239-.339-.309-.547s-.106-.434-.106-.678zM5 5.075v.072c0 .152.016.296.047.431s.08.254.147.356c.067.102.152.182.256.241s.228.087.372.087c.14 0 .26-.029.362-.087.104-.058.19-.139.256-.241s.116-.221.147-.356c.033-.135.05-.279.05-.431v-.072c0-.15-.017-.292-.05-.425a1.081 1.081 0 0 0-.15-.359.71.71 0 0 0-.622-.335.716.716 0 0 0-.369.091c-.102.058-.186.14-.253.244s-.116.224-.147.359a1.87 1.87 0 0 0-.047.425zm4.531 1.187a.742.742 0 0 0 .331-.072c.1-.05.18-.119.241-.206a.565.565 0 0 0 .103-.303h.709c-.004.219-.069.418-.194.597s-.291.322-.497.428a1.496 1.496 0 0 1-.684.156c-.258 0-.483-.044-.675-.131-.192-.09-.351-.212-.478-.369s-.223-.336-.287-.541a2.214 2.214 0 0 1-.094-.656v-.109c0-.233.031-.452.094-.656.065-.206.16-.388.287-.544s.286-.278.478-.366c.192-.09.416-.134.672-.134.271 0 .508.054.713.163.204.106.365.255.481.447.119.19.18.41.184.662h-.709a.753.753 0 0 0-.094-.337.623.623 0 0 0-.231-.244.664.664 0 0 0-.353-.091.697.697 0 0 0-.378.094.627.627 0 0 0-.234.25 1.226 1.226 0 0 0-.122.353 2.299 2.299 0 0 0-.034.403v.109c0 .14.011.275.034.406s.063.249.119.353a.695.695 0 0 0 .238.247c.1.06.227.091.381.091zm2.897-2.843V6.8h-.756V3.419h.756zm-.807-.888c0-.115.038-.209.113-.284a.43.43 0 0 1 .319-.116c.133 0 .239.039.316.116a.38.38 0 0 1 .116.284c0 .112-.039.206-.116.281s-.182.112-.316.112a.443.443 0 0 1-.319-.112.382.382 0 0 1-.113-.281zm3.666 3.591V4.509c0-.121-.022-.225-.066-.312s-.11-.155-.2-.203a.682.682 0 0 0-.331-.072c-.123 0-.229.021-.319.063s-.159.098-.209.169-.075.151-.075.241h-.75c0-.133.032-.263.097-.388s.158-.236.281-.334.27-.175.441-.231c.171-.056.362-.084.575-.084.254 0 .479.043.675.128.198.085.353.215.466.388.115.171.172.385.172.644v1.503c0 .154.01.293.031.416.023.121.055.226.097.316v.05H15.4a1.308 1.308 0 0 1-.084-.309 2.492 2.492 0 0 1-.028-.369zm.109-1.378.006.466h-.541c-.14 0-.263.014-.369.041-.106.025-.195.062-.266.112a.48.48 0 0 0-.212.422c0 .09.021.172.063.247.042.073.102.13.181.172a.632.632 0 0 0 .294.063.822.822 0 0 0 .678-.328.505.505 0 0 0 .106-.266l.244.334c-.025.085-.068.177-.128.275s-.14.192-.238.281a1.181 1.181 0 0 1-.809.3c-.221 0-.418-.044-.591-.131a1.052 1.052 0 0 1-.406-.359.932.932 0 0 1-.147-.516c0-.179.033-.337.1-.475a.934.934 0 0 1 .3-.35c.133-.094.296-.165.487-.212.192-.05.41-.075.656-.075h.591zM17.765 2v4.8h-.756V2h.756zm3.428 2.106V6.8h-.753V3.419h.709l.044.688zm-.122.878-.256-.003c0-.233.029-.449.087-.647s.144-.37.256-.516c.112-.148.252-.261.419-.341.169-.081.364-.122.584-.122.154 0 .295.023.422.069a.842.842 0 0 1 .334.209.926.926 0 0 1 .219.369c.052.15.078.331.078.544v2.253h-.753V4.611a.826.826 0 0 0-.075-.387.419.419 0 0 0-.209-.2.755.755 0 0 0-.322-.063.75.75 0 0 0-.362.081c-.098.054-.178.128-.241.222s-.108.202-.137.325-.044.254-.044.394zm2.097-.2-.353.078c0-.204.028-.397.084-.578.058-.183.143-.344.253-.481.113-.14.251-.249.416-.328s.353-.119.566-.119c.173 0 .327.024.462.072.138.046.254.119.35.219s.169.23.219.391c.05.158.075.35.075.575v2.188h-.756V4.61a.857.857 0 0 0-.075-.397.392.392 0 0 0-.206-.194.825.825 0 0 0-.322-.056.689.689 0 0 0-.309.066.628.628 0 0 0-.222.178.793.793 0 0 0-.137.259 1.118 1.118 0 0 0-.044.319zm4.465 2.078c-.25 0-.476-.041-.678-.122a1.483 1.483 0 0 1-.512-.347c-.14-.148-.247-.322-.322-.522s-.113-.416-.113-.647v-.125c0-.265.039-.504.116-.719s.184-.398.322-.55c.137-.154.3-.272.487-.353s.391-.122.609-.122c.242 0 .453.041.634.122s.331.196.45.344c.121.146.21.32.269.522.06.202.091.425.091.669v.322h-2.612v-.541h1.869v-.059a1.056 1.056 0 0 0-.081-.381c-.048-.119-.122-.215-.222-.287s-.233-.109-.4-.109a.663.663 0 0 0-.575.309c-.065.1-.115.221-.15.362-.033.14-.05.297-.05.472v.125c0 .148.02.285.059.413.042.125.102.234.181.328s.175.168.288.222a.905.905 0 0 0 .384.078 1.04 1.04 0 0 0 .853-.418l.397.384a1.41 1.41 0 0 1-.712.54c-.167.06-.36.091-.581.091zm4.131-.762V2h.756v4.8h-.684l-.072-.7zm-2.2-.953v-.066c0-.256.03-.49.091-.7.06-.212.148-.395.263-.547.115-.154.254-.272.419-.353a1.22 1.22 0 0 1 .556-.125c.204 0 .383.04.537.119s.285.193.394.341c.108.146.195.321.259.525.065.202.11.427.138.675v.209c-.027.242-.073.463-.138.663s-.151.373-.259.519-.241.258-.397.338a1.17 1.17 0 0 1-.541.119c-.204 0-.389-.043-.553-.128-.162-.085-.301-.205-.416-.359s-.202-.335-.263-.544a2.486 2.486 0 0 1-.091-.684zm.754-.066v.066c0 .154.014.298.041.431.029.133.074.251.134.353.06.1.139.179.234.238a.695.695 0 0 0 .35.084c.171 0 .311-.037.422-.112s.197-.176.259-.303a1.4 1.4 0 0 0 .131-.431v-.566a1.383 1.383 0 0 0-.078-.344.922.922 0 0 0-.153-.278.655.655 0 0 0-.241-.188.751.751 0 0 0-.334-.069c-.137 0-.254.029-.35.087s-.175.139-.237.241c-.06.102-.105.221-.134.356s-.044.28-.044.434zm3.924-1.662V6.8h-.756V3.419h.756zm-.806-.888c0-.115.038-.209.113-.284a.43.43 0 0 1 .319-.116c.133 0 .239.039.316.116a.38.38 0 0 1 .116.284c0 .112-.039.206-.116.281s-.182.112-.316.112a.443.443 0 0 1-.319-.112.382.382 0 0 1-.113-.281zm3.666 3.591V4.509c0-.121-.022-.225-.066-.312s-.11-.155-.2-.203a.682.682 0 0 0-.331-.072c-.123 0-.229.021-.319.063s-.159.098-.209.169-.075.151-.075.241h-.75c0-.133.032-.263.097-.388s.158-.236.281-.334.27-.175.441-.231c.171-.056.363-.084.575-.084.254 0 .479.043.675.128.198.085.353.215.466.388.115.171.172.385.172.644v1.503c0 .154.01.293.031.416.023.121.055.226.097.316v.05h-.772a1.308 1.308 0 0 1-.084-.309 2.492 2.492 0 0 1-.028-.369zm.109-1.378.006.466h-.541c-.14 0-.263.014-.369.041-.106.025-.195.062-.266.112a.48.48 0 0 0-.212.422c0 .09.021.172.062.247.042.073.102.13.181.172a.632.632 0 0 0 .294.063.822.822 0 0 0 .678-.328.505.505 0 0 0 .106-.266l.244.334c-.025.085-.068.177-.128.275s-.14.192-.237.281a1.181 1.181 0 0 1-.81.3c-.221 0-.418-.044-.591-.131a1.052 1.052 0 0 1-.406-.359.932.932 0 0 1-.147-.516c0-.179.033-.337.1-.475a.934.934 0 0 1 .3-.35c.133-.094.296-.165.487-.212.192-.05.41-.075.656-.075h.591z"/><path fill="#4d5ae5" d="M16 24c0 2.209-.895 4.209-2.343 5.657S10.209 32 8 32s-4.209-.895-5.657-2.343S0 26.209 0 24s.895-4.209 2.343-5.657S5.791 16 8 16s4.209.895 5.657 2.343S16 21.791 16 24z"/><path fill="#f4f4fd" d="M12.791 22.022c-.022-.51-.105-.861-.223-1.165a2.334 2.334 0 0 0-.555-.851 2.359 2.359 0 0 0-.85-.553c-.306-.118-.654-.201-1.165-.223-.514-.024-.677-.03-1.98-.03s-1.467.006-1.979.028c-.51.023-.861.105-1.165.223a2.334 2.334 0 0 0-.851.555c-.244.24-.433.531-.553.85-.118.306-.201.654-.223 1.165-.024.514-.03.677-.03 1.98s.006 1.467.028 1.979c.022.51.105.861.223 1.165.122.323.311.611.555.851.24.244.531.433.85.553.306.118.654.201 1.165.223.512.023.675.028 1.978.028s1.467-.006 1.979-.028c.51-.022.861-.105 1.165-.223a2.458 2.458 0 0 0 1.405-1.405c.118-.306.201-.655.223-1.165.022-.512.028-.675.028-1.979s-.002-1.467-.024-1.978zm-.865 3.92c-.021.469-.099.722-.165.891a1.59 1.59 0 0 1-.911.911c-.169.066-.424.144-.891.165-.506.023-.658.028-1.939.028s-1.435-.006-1.939-.028c-.469-.021-.722-.099-.891-.165a1.476 1.476 0 0 1-.551-.358 1.5 1.5 0 0 1-.358-.551c-.066-.169-.144-.424-.165-.891-.023-.506-.028-.658-.028-1.939s.006-1.435.028-1.939c.021-.469.099-.722.165-.891.077-.208.199-.398.36-.551a1.5 1.5 0 0 1 .551-.358c.169-.066.424-.144.891-.165.506-.022.658-.028 1.939-.028 1.283 0 1.435.006 1.939.028.469.021.722.099.891.165.208.077.398.199.551.358a1.5 1.5 0 0 1 .358.551c.066.169.144.424.165.891.022.506.028.658.028 1.939s-.006 1.431-.028 1.937z"/><path fill="#f4f4fd" d="M8.018 21.535a2.467 2.467 0 0 0 0 4.932 2.467 2.467 0 0 0 0-4.932zm0 4.066a1.6 1.6 0 1 1 0-3.2 1.6 1.6 0 0 1 0 3.2zM11.157 21.437a.576.576 0 1 1-1.152 0 .576.576 0 0 1 1.152 0z"/><path fill="#4d5ae5" d="M38.4 24c0 2.209-.895 4.209-2.343 5.657S32.609 32 30.4 32s-4.209-.895-5.657-2.343S22.4 26.209 22.4 24s.895-4.209 2.343-5.657S28.191 16 30.4 16s4.209.895 5.657 2.343S38.4 21.791 38.4 24z"/><path fill="#f4f4fd" d="M35.2 21.023c-.357.157-.737.26-1.134.311a1.96 1.96 0 0 0 .866-1.088c-.38.227-.8.387-1.248.476a1.967 1.967 0 0 0-3.405 1.346c0 .156.013.306.046.449a5.572 5.572 0 0 1-4.057-2.059 1.972 1.972 0 0 0 .605 2.631 1.951 1.951 0 0 1-.889-.242v.022c0 .956.682 1.751 1.577 1.934-.16.044-.335.065-.516.065a1.71 1.71 0 0 1-.373-.034 1.988 1.988 0 0 0 1.839 1.371 3.954 3.954 0 0 1-2.911.812 5.543 5.543 0 0 0 3.019.883c3.622 0 5.602-3 5.602-5.6 0-.087-.003-.171-.007-.254.391-.277.719-.623.986-1.022z"/><path fill="#4d5ae5" d="M60.8 24c0 2.209-.896 4.209-2.343 5.657S55.009 32 52.8 32s-4.209-.895-5.657-2.343S44.8 26.209 44.8 24s.896-4.209 2.343-5.657S50.591 16 52.8 16s4.209.895 5.657 2.343S60.8 21.791 60.8 24z"/><path fill="#f4f4fd" d="M54.399 20.794h.876v-1.526a11.226 11.226 0 0 0-1.277-.068c-1.264 0-2.129.795-2.129 2.256V22.8h-1.394v1.706h1.394V28.8h1.71v-4.293h1.338l.212-1.706h-1.551v-1.176c0-.493.133-.831.82-.831z"/><path fill="#4d5ae5" d="M83.2 24c0 2.209-.896 4.209-2.343 5.657S77.409 32 75.2 32s-4.209-.895-5.657-2.343S67.2 26.209 67.2 24s.896-4.209 2.343-5.657S72.991 16 75.2 16s4.209.895 5.657 2.343S83.2 21.791 83.2 24z"/><path fill="#f4f4fd" d="M79.998 28.8H80v-3.521c0-1.722-.371-3.049-2.384-3.049-.968 0-1.618.531-1.883 1.035h-.028v-.874h-1.909V28.8h1.988v-3.174c0-.836.158-1.644 1.193-1.644 1.02 0 1.035.954 1.035 1.697v3.12h1.986zM70.558 22.391h1.99V28.8h-1.99v-6.409zM71.553 19.2c-.636 0-1.153.516-1.153 1.153s.516 1.164 1.153 1.164c.636 0 1.153-.527 1.153-1.164s-.517-1.153-1.153-1.153z"/></svg>